<svg xmlns="http://www.w3.org/2000/svg" viewBox="0 0 48 48" role="img" aria-label="8I">
  <ellipse cx="24" cy="26" rx="14" ry="9" fill="#f97316"/>
  <path fill="#ea580c" d="M10 24c-4-2-6-5-6-8 0-3 2-5 5-5 2 0 4 1 5 3 1-4 4-7 8-7 5 0 9 4 10 9 1-5 5-9 10-9 4 0 7 3 8 7 3-2 5-3 7-3 3 0 5 2 5 5 0 3-2 6-6 8-2 10-8 16-16 18-8-2-14-8-16-18z"/>
  <circle cx="18" cy="22" r="1.5" fill="#1e293b"/>
  <circle cx="30" cy="22" r="1.5" fill="#1e293b"/>
  <path stroke="#ea580c" stroke-width="2" stroke-linecap="round" fill="none" d="M6 20l-4 2M6 28l-4-2M42 20l4 2M42 28l4-2"/>
</svg>
